<?xml version="1.0" encoding="utf-8"?>
<svg version="1.1" id="Capa_1" x="0px" y="0px" viewBox="0 0 512.076 512.076" style="enable-background:new 0 0 512.076 512.076;" xmlns="http://www.w3.org/2000/svg">
  <g transform="translate(-1 -1)">
    <g>
      <g>
        <path d="M 499.639 396.039 L 395.993 326.919 C 382.84 318.218 365.209 321.081 355.485 333.498 L 325.294 372.316 C 321.414 377.432 314.361 378.916 308.748 375.798 L 303.005 372.632 C 283.967 362.255 260.279 349.336 212.552 301.592 C 164.825 253.848 151.88 230.142 141.503 211.139 L 138.354 205.396 C 135.193 199.784 136.649 192.701 141.767 188.79 L 180.559 158.608 C 192.971 148.883 195.838 131.257 187.147 118.1 L 118.027 14.454 C 109.12 1.056 91.25 -2.966 77.461 5.323 L 34.12 31.358 C 20.502 39.364 10.511 52.33 6.242 67.539 C -9.365 124.405 2.376 222.547 146.948 367.136 C 261.952 482.131 347.567 513.056 406.413 513.056 C 419.956 513.114 433.446 511.352 446.52 507.817 C 461.732 503.553 474.7 493.561 482.701 479.939 L 508.762 436.624 C 517.063 422.832 513.043 404.951 499.639 396.039 Z M 471.895 418.536 L 468.057 471.209 C 462.312 481.041 452.985 488.27 442.03 491.382 C 389.533 505.795 297.817 493.857 159.022 355.062 C 20.227 216.267 162.263 189.88 176.676 137.375 C 179.792 126.407 110.043 76.243 119.887 70.489 L 158.563 88.813 C 164.546 85.213 99.981 18.137 103.846 23.951 L 60.907 163.141 L 156.174 137.027 C 159.948 142.734 175.441 140.944 170.057 145.167 L 131.256 175.349 C 119.448 184.378 4.096 138.893 11.366 151.859 L 58.772 235.609 C 69.678 255.611 97.235 308.49 146.737 357.984 C 196.239 407.477 302.766 471.194 322.759 482.099 L 404.185 502.685 C 417.15 509.954 462.649 494.919 471.678 483.111 L 489.029 413.982 C 493.253 408.601 380.754 337.374 386.463 341.144 L 445.775 405.598 C 451.593 409.46 475.5 412.554 471.895 418.536 Z" style="fill: rgb(221, 221, 221);"/>
        <path d="M291.161,86.39c80.081,0.089,144.977,64.986,145.067,145.067c0,4.713,3.82,8.533,8.533,8.533s8.533-3.82,8.533-8.533 c-0.099-89.503-72.63-162.035-162.133-162.133c-4.713,0-8.533,3.82-8.533,8.533S286.448,86.39,291.161,86.39z" style="fill: rgb(221, 221, 221);"/>
        <path d="M291.161,137.59c51.816,0.061,93.806,42.051,93.867,93.867c0,4.713,3.821,8.533,8.533,8.533 c4.713,0,8.533-3.82,8.533-8.533c-0.071-61.238-49.696-110.863-110.933-110.933c-4.713,0-8.533,3.82-8.533,8.533 S286.448,137.59,291.161,137.59z" style="fill: rgb(221, 221, 221);"/>
        <path d="M291.161,188.79c23.552,0.028,42.638,19.114,42.667,42.667c0,4.713,3.821,8.533,8.533,8.533s8.533-3.82,8.533-8.533 c-0.038-32.974-26.759-59.696-59.733-59.733c-4.713,0-8.533,3.82-8.533,8.533S286.448,188.79,291.161,188.79z" style="fill: rgb(221, 221, 221);"/>
      </g>
    </g>
  </g>
  <g/>
  <g/>
  <g/>
  <g/>
  <g/>
  <g/>
  <g/>
  <g/>
  <g/>
  <g/>
  <g/>
  <g/>
  <g/>
  <g/>
  <g/>
</svg>